<svg xmlns="http://www.w3.org/2000/svg" xmlns:xlink="http://www.w3.org/1999/xlink" width="500" zoomAndPan="magnify" viewBox="0 0 375 374.999991" height="500" preserveAspectRatio="xMidYMid meet" version="1.0"><defs><clipPath id="0a33215775"><path d="M 7 67.089844 L 368.683594 67.089844 L 368.683594 307 L 7 307 Z M 7 67.089844 " clip-rule="nonzero"/></clipPath><clipPath id="97cf66fbe0"><path d="M 10 76 L 348 76 L 348 304 L 10 304 Z M 10 76 " clip-rule="nonzero"/></clipPath><clipPath id="4a8fb7cea7"><path d="M 199.601562 76.683594 C 198.851562 76.492188 198.113281 76.363281 197.386719 76.300781 C 196.660156 76.234375 195.953125 76.234375 195.265625 76.296875 C 194.582031 76.363281 193.921875 76.492188 193.292969 76.683594 C 192.664062 76.875 192.070312 77.128906 191.511719 77.441406 C 190.953125 77.757812 190.4375 78.132812 189.960938 78.5625 C 189.488281 78.992188 189.0625 79.476562 188.683594 80.011719 C 188.300781 80.550781 187.976562 81.132812 187.699219 81.761719 C 187.425781 82.390625 187.203125 83.0625 187.039062 83.769531 L 141.824219 277.820312 C 141.609375 278.734375 141.492188 279.695312 141.46875 280.707031 C 141.445312 281.71875 141.519531 282.757812 141.683594 283.828125 C 141.851562 284.902344 142.113281 285.980469 142.460938 287.070312 C 142.8125 288.160156 143.25 289.238281 143.769531 290.304688 C 144.292969 291.371094 144.890625 292.40625 145.5625 293.40625 C 146.234375 294.410156 146.96875 295.359375 147.765625 296.261719 C 148.5625 297.160156 149.402344 297.992188 150.292969 298.753906 C 151.183594 299.515625 152.105469 300.195312 153.054688 300.789062 C 153.53125 301.085938 154.007812 301.363281 154.488281 301.613281 C 154.972656 301.863281 155.457031 302.089844 155.941406 302.292969 C 156.425781 302.496094 156.910156 302.671875 157.394531 302.824219 C 157.878906 302.976562 158.359375 303.105469 158.839844 303.203125 C 159.316406 303.304688 159.789062 303.378906 160.257812 303.425781 C 160.726562 303.472656 161.1875 303.496094 161.640625 303.488281 C 162.09375 303.484375 162.535156 303.449219 162.96875 303.390625 C 163.402344 303.332031 163.824219 303.246094 164.234375 303.136719 C 164.644531 303.023438 165.039062 302.886719 165.421875 302.722656 C 165.804688 302.558594 166.171875 302.371094 166.523438 302.160156 C 166.875 301.945312 167.210938 301.707031 167.527344 301.445312 C 167.84375 301.1875 168.140625 300.902344 168.421875 300.59375 C 168.699219 300.289062 168.960938 299.960938 169.199219 299.613281 C 169.4375 299.261719 169.65625 298.894531 169.851562 298.503906 C 170.046875 298.117188 170.222656 297.710938 170.375 297.289062 C 170.527344 296.863281 170.65625 296.425781 170.761719 295.96875 L 215.976562 101.917969 C 216.1875 101.003906 216.308594 100.042969 216.332031 99.03125 C 216.355469 98.023438 216.28125 96.980469 216.113281 95.910156 C 215.949219 94.839844 215.6875 93.757812 215.335938 92.667969 C 214.984375 91.578125 214.550781 90.503906 214.027344 89.4375 C 213.507812 88.371094 212.910156 87.335938 212.238281 86.332031 C 211.566406 85.332031 210.832031 84.378906 210.035156 83.480469 C 209.238281 82.582031 208.394531 81.75 207.503906 80.988281 C 206.613281 80.226562 205.695312 79.546875 204.742188 78.949219 C 203.042969 77.882812 201.328125 77.128906 199.601562 76.683594 Z M 86.558594 85.023438 C 84.597656 84.382812 82.734375 84.167969 80.96875 84.382812 C 79.203125 84.59375 77.667969 85.21875 76.367188 86.25 L 14.097656 135.769531 C 13.75 136.046875 13.425781 136.351562 13.121094 136.679688 C 12.816406 137.011719 12.535156 137.367188 12.277344 137.75 C 12.019531 138.128906 11.789062 138.53125 11.582031 138.960938 C 11.375 139.386719 11.195312 139.832031 11.039062 140.300781 C 10.886719 140.765625 10.761719 141.253906 10.660156 141.753906 C 10.5625 142.257812 10.488281 142.777344 10.445312 143.308594 C 10.398438 143.839844 10.382812 144.386719 10.394531 144.941406 C 10.40625 145.5 10.449219 146.0625 10.515625 146.636719 C 10.582031 147.210938 10.679688 147.792969 10.800781 148.375 C 10.925781 148.960938 11.074219 149.546875 11.25 150.136719 C 11.425781 150.726562 11.628906 151.316406 11.859375 151.902344 C 12.085938 152.488281 12.339844 153.074219 12.617188 153.652344 C 12.894531 154.230469 13.195312 154.800781 13.515625 155.363281 C 13.839844 155.925781 14.183594 156.476562 14.550781 157.015625 C 14.917969 157.558594 15.300781 158.085938 15.707031 158.597656 C 16.109375 159.109375 16.53125 159.605469 16.96875 160.085938 L 95.175781 245.667969 C 95.582031 246.109375 95.996094 246.535156 96.425781 246.945312 C 96.851562 247.351562 97.289062 247.742188 97.738281 248.113281 C 98.1875 248.484375 98.644531 248.835938 99.109375 249.167969 C 99.574219 249.496094 100.042969 249.804688 100.519531 250.09375 C 100.996094 250.378906 101.476562 250.640625 101.957031 250.882812 C 102.441406 251.121094 102.925781 251.335938 103.410156 251.527344 C 103.898438 251.71875 104.382812 251.886719 104.863281 252.027344 C 105.347656 252.167969 105.828125 252.28125 106.304688 252.367188 C 106.78125 252.457031 107.25 252.519531 107.714844 252.554688 C 108.179688 252.589844 108.636719 252.597656 109.085938 252.578125 C 109.535156 252.5625 109.972656 252.515625 110.402344 252.445312 C 110.832031 252.375 111.246094 252.277344 111.652344 252.152344 C 112.054688 252.03125 112.445312 251.878906 112.820312 251.707031 C 113.195312 251.53125 113.554688 251.332031 113.898438 251.105469 C 114.242188 250.882812 114.570312 250.632812 114.878906 250.363281 C 115.1875 250.089844 115.476562 249.796875 115.746094 249.480469 C 116.289062 248.84375 116.746094 248.128906 117.117188 247.332031 C 117.492188 246.539062 117.773438 245.675781 117.964844 244.75 C 118.15625 243.824219 118.25 242.851562 118.25 241.832031 C 118.253906 240.8125 118.160156 239.765625 117.96875 238.691406 C 117.78125 237.617188 117.5 236.535156 117.128906 235.445312 C 116.757812 234.355469 116.300781 233.28125 115.761719 232.222656 C 115.222656 231.160156 114.605469 230.132812 113.917969 229.140625 C 113.230469 228.148438 112.484375 227.210938 111.675781 226.324219 L 47.542969 156.144531 L 98.605469 115.542969 C 99.25 115.03125 99.816406 114.429688 100.304688 113.738281 C 100.792969 113.050781 101.195312 112.285156 101.511719 111.441406 C 101.828125 110.601562 102.050781 109.699219 102.179688 108.738281 C 102.308594 107.78125 102.34375 106.777344 102.285156 105.738281 C 102.222656 104.695312 102.066406 103.632812 101.820312 102.546875 C 101.570312 101.460938 101.230469 100.378906 100.804688 99.292969 C 100.375 98.210938 99.867188 97.144531 99.277344 96.101562 C 98.683594 95.058594 98.023438 94.058594 97.292969 93.09375 C 95.820312 91.152344 94.152344 89.484375 92.292969 88.085938 C 90.433594 86.6875 88.523438 85.667969 86.558594 85.023438 Z M 251.496094 127.371094 C 249.566406 127.015625 247.785156 127.085938 246.148438 127.585938 C 244.511719 128.085938 243.148438 128.980469 242.054688 130.261719 C 241.511719 130.898438 241.054688 131.613281 240.679688 132.40625 C 240.308594 133.203125 240.027344 134.0625 239.835938 134.988281 C 239.644531 135.914062 239.546875 136.886719 239.546875 137.910156 C 239.546875 138.929688 239.640625 139.976562 239.828125 141.050781 C 240.019531 142.125 240.296875 143.207031 240.671875 144.296875 C 241.042969 145.386719 241.496094 146.460938 242.039062 147.523438 C 242.578125 148.582031 243.191406 149.609375 243.878906 150.601562 C 244.566406 151.59375 245.316406 152.53125 246.125 153.417969 L 310.257812 223.597656 L 259.195312 264.199219 C 258.550781 264.714844 257.984375 265.316406 257.496094 266.003906 C 257.007812 266.695312 256.605469 267.460938 256.289062 268.300781 C 255.972656 269.140625 255.75 270.042969 255.621094 271.003906 C 255.492188 271.960938 255.457031 272.964844 255.515625 274.007812 C 255.578125 275.046875 255.734375 276.109375 255.980469 277.195312 C 256.230469 278.277344 256.570312 279.363281 256.996094 280.449219 C 257.425781 281.53125 257.933594 282.59375 258.523438 283.636719 C 259.113281 284.679688 259.773438 285.683594 260.503906 286.644531 C 260.871094 287.125 261.25 287.589844 261.640625 288.042969 C 262.035156 288.496094 262.441406 288.929688 262.863281 289.351562 C 263.28125 289.773438 263.714844 290.175781 264.15625 290.558594 C 264.597656 290.945312 265.046875 291.308594 265.507812 291.65625 C 265.964844 292 266.429688 292.324219 266.902344 292.628906 C 267.375 292.929688 267.855469 293.210938 268.335938 293.464844 C 268.816406 293.722656 269.300781 293.957031 269.785156 294.164062 C 270.269531 294.375 270.753906 294.558594 271.238281 294.714844 C 271.722656 294.875 272.207031 295.007812 272.683594 295.113281 C 273.164062 295.21875 273.640625 295.300781 274.109375 295.355469 C 274.578125 295.410156 275.039062 295.4375 275.496094 295.4375 C 275.949219 295.4375 276.394531 295.410156 276.832031 295.359375 C 277.269531 295.308594 277.691406 295.226562 278.105469 295.121094 C 278.519531 295.019531 278.917969 294.886719 279.304688 294.730469 C 279.691406 294.574219 280.0625 294.390625 280.417969 294.183594 C 280.773438 293.976562 281.109375 293.746094 281.429688 293.488281 L 343.699219 243.972656 C 344.046875 243.695312 344.375 243.390625 344.679688 243.058594 C 344.984375 242.730469 345.265625 242.375 345.523438 241.992188 C 345.777344 241.613281 346.011719 241.207031 346.21875 240.78125 C 346.425781 240.355469 346.605469 239.90625 346.757812 239.441406 C 346.914062 238.972656 347.039062 238.488281 347.140625 237.984375 C 347.238281 237.480469 347.3125 236.964844 347.355469 236.433594 C 347.398438 235.898438 347.414062 235.355469 347.402344 234.796875 C 347.390625 234.242188 347.351562 233.675781 347.285156 233.101562 C 347.214844 232.527344 347.121094 231.949219 347 231.363281 C 346.875 230.777344 346.726562 230.191406 346.550781 229.601562 C 346.371094 229.011719 346.171875 228.425781 345.941406 227.839844 C 345.714844 227.25 345.460938 226.667969 345.183594 226.089844 C 344.90625 225.511719 344.605469 224.941406 344.28125 224.378906 C 343.957031 223.816406 343.613281 223.265625 343.25 222.722656 C 342.882812 222.183594 342.496094 221.65625 342.09375 221.144531 C 341.691406 220.632812 341.269531 220.136719 340.832031 219.65625 L 262.621094 134.070312 C 260.988281 132.285156 259.207031 130.808594 257.28125 129.648438 C 255.351562 128.488281 253.425781 127.730469 251.496094 127.371094 Z M 251.496094 127.371094 " clip-rule="nonzero"/></clipPath><linearGradient x1="-69.661591" gradientTransform="matrix(1.697413, 0, 0, 1.696396, 330.530607, -102.724578)" y1="89.165391" x2="-104.045205" gradientUnits="userSpaceOnUse" y2="256.804329" id="7e3188c2e9"><stop stop-opacity="1" stop-color="rgb(50.19989%, 31.759644%, 100%)" offset="0"/><stop stop-opacity="1" stop-color="rgb(50.32196%, 31.925964%, 100%)" offset="0.233125"/><stop stop-opacity="1" stop-color="rgb(50.444031%, 32.092285%, 100%)" offset="0.25"/><stop stop-opacity="1" stop-color="rgb(50.523376%, 32.199097%, 100%)" offset="0.257812"/><stop stop-opacity="1" stop-color="rgb(50.683594%, 32.415771%, 100%)" offset="0.265625"/><stop stop-opacity="1" stop-color="rgb(50.843811%, 32.632446%, 100%)" offset="0.273438"/><stop stop-opacity="1" stop-color="rgb(51.004028%, 32.849121%, 100%)" offset="0.28125"/><stop stop-opacity="1" stop-color="rgb(51.16272%, 33.065796%, 100%)" offset="0.289062"/><stop stop-opacity="1" stop-color="rgb(51.322937%, 33.282471%, 100%)" offset="0.296875"/><stop stop-opacity="1" stop-color="rgb(51.483154%, 33.499146%, 100%)" offset="0.304688"/><stop stop-opacity="1" stop-color="rgb(51.643372%, 33.71582%, 100%)" offset="0.3125"/><stop stop-opacity="1" stop-color="rgb(51.802063%, 33.930969%, 100%)" offset="0.320312"/><stop stop-opacity="1" stop-color="rgb(51.96228%, 34.147644%, 100%)" offset="0.328125"/><stop stop-opacity="1" stop-color="rgb(52.122498%, 34.364319%, 100%)" offset="0.335938"/><stop stop-opacity="1" stop-color="rgb(52.282715%, 34.580994%, 100%)" offset="0.34375"/><stop stop-opacity="1" stop-color="rgb(52.441406%, 34.797668%, 100%)" offset="0.351562"/><stop stop-opacity="1" stop-color="rgb(52.601624%, 35.014343%, 100%)" offset="0.359375"/><stop stop-opacity="1" stop-color="rgb(52.761841%, 35.231018%, 100%)" offset="0.367188"/><stop stop-opacity="1" stop-color="rgb(52.922058%, 35.446167%, 100%)" offset="0.375"/><stop stop-opacity="1" stop-color="rgb(53.08075%, 35.662842%, 100%)" offset="0.382812"/><stop stop-opacity="1" stop-color="rgb(53.240967%, 35.879517%, 100%)" offset="0.390625"/><stop stop-opacity="1" stop-color="rgb(53.401184%, 36.096191%, 100%)" offset="0.398437"/><stop stop-opacity="1" stop-color="rgb(53.561401%, 36.312866%, 100%)" offset="0.40625"/><stop stop-opacity="1" stop-color="rgb(53.720093%, 36.529541%, 100%)" offset="0.414062"/><stop stop-opacity="1" stop-color="rgb(53.88031%, 36.746216%, 100%)" offset="0.421875"/><stop stop-opacity="1" stop-color="rgb(54.040527%, 36.962891%, 100%)" offset="0.429687"/><stop stop-opacity="1" stop-color="rgb(54.200745%, 37.17804%, 100%)" offset="0.4375"/><stop stop-opacity="1" stop-color="rgb(54.359436%, 37.394714%, 100%)" offset="0.445312"/><stop stop-opacity="1" stop-color="rgb(54.519653%, 37.611389%, 100%)" offset="0.453125"/><stop stop-opacity="1" stop-color="rgb(54.679871%, 37.828064%, 100%)" offset="0.460938"/><stop stop-opacity="1" stop-color="rgb(54.840088%, 38.044739%, 100%)" offset="0.46875"/><stop stop-opacity="1" stop-color="rgb(54.998779%, 38.261414%, 100%)" offset="0.476562"/><stop stop-opacity="1" stop-color="rgb(55.158997%, 38.478088%, 100%)" offset="0.484375"/><stop stop-opacity="1" stop-color="rgb(55.319214%, 38.693237%, 100%)" offset="0.492188"/><stop stop-opacity="1" stop-color="rgb(55.479431%, 38.909912%, 100%)" offset="0.5"/><stop stop-opacity="1" stop-color="rgb(55.638123%, 39.126587%, 100%)" offset="0.507812"/><stop stop-opacity="1" stop-color="rgb(55.79834%, 39.343262%, 100%)" offset="0.515625"/><stop stop-opacity="1" stop-color="rgb(55.958557%, 39.559937%, 100%)" offset="0.523438"/><stop stop-opacity="1" stop-color="rgb(56.118774%, 39.776611%, 100%)" offset="0.53125"/><stop stop-opacity="1" stop-color="rgb(56.277466%, 39.993286%, 100%)" offset="0.539062"/><stop stop-opacity="1" stop-color="rgb(56.437683%, 40.209961%, 100%)" offset="0.546875"/><stop stop-opacity="1" stop-color="rgb(56.5979%, 40.42511%, 100%)" offset="0.554688"/><stop stop-opacity="1" stop-color="rgb(56.758118%, 40.641785%, 100%)" offset="0.5625"/><stop stop-opacity="1" stop-color="rgb(56.848145%, 40.763855%, 100%)" offset="0.625"/><stop stop-opacity="1" stop-color="rgb(56.858826%, 40.779114%, 100%)" offset="0.75"/><stop stop-opacity="1" stop-color="rgb(56.858826%, 40.779114%, 100%)" offset="0.766875"/><stop stop-opacity="1" stop-color="rgb(56.858826%, 40.779114%, 100%)" offset="1"/></linearGradient><clipPath id="041e551675"><path d="M 13 67.089844 L 375 67.089844 L 375 307 L 13 307 Z M 13 67.089844 " clip-rule="nonzero"/></clipPath><clipPath id="1fe75b79cd"><path d="M 16 76 L 354 76 L 354 304 L 16 304 Z M 16 76 " clip-rule="nonzero"/></clipPath><clipPath id="dbdb8ff496"><path d="M 206.035156 76.683594 C 205.285156 76.492188 204.546875 76.363281 203.820312 76.300781 C 203.09375 76.234375 202.386719 76.234375 201.703125 76.296875 C 201.015625 76.363281 200.359375 76.492188 199.730469 76.683594 C 199.097656 76.875 198.503906 77.128906 197.945312 77.441406 C 197.386719 77.757812 196.871094 78.132812 196.398438 78.5625 C 195.921875 78.992188 195.496094 79.476562 195.117188 80.011719 C 194.738281 80.550781 194.410156 81.132812 194.132812 81.761719 C 193.859375 82.390625 193.636719 83.0625 193.472656 83.769531 L 148.257812 277.820312 C 148.046875 278.734375 147.925781 279.695312 147.902344 280.707031 C 147.878906 281.71875 147.953125 282.757812 148.121094 283.828125 C 148.285156 284.902344 148.546875 285.980469 148.898438 287.070312 C 149.25 288.160156 149.683594 289.238281 150.207031 290.304688 C 150.726562 291.371094 151.324219 292.40625 151.996094 293.40625 C 152.667969 294.410156 153.402344 295.359375 154.199219 296.261719 C 154.996094 297.160156 155.839844 297.992188 156.730469 298.753906 C 157.621094 299.515625 158.539062 300.195312 159.492188 300.789062 C 159.964844 301.085938 160.441406 301.363281 160.925781 301.613281 C 161.40625 301.863281 161.890625 302.089844 162.375 302.292969 C 162.859375 302.496094 163.347656 302.671875 163.828125 302.824219 C 164.3125 302.976562 164.796875 303.105469 165.273438 303.203125 C 165.753906 303.304688 166.226562 303.378906 166.691406 303.425781 C 167.160156 303.472656 167.621094 303.496094 168.074219 303.488281 C 168.527344 303.484375 168.96875 303.449219 169.402344 303.390625 C 169.835938 303.332031 170.257812 303.246094 170.667969 303.136719 C 171.078125 303.023438 171.476562 302.886719 171.859375 302.722656 C 172.242188 302.558594 172.609375 302.371094 172.960938 302.160156 C 173.3125 301.945312 173.644531 301.707031 173.960938 301.445312 C 174.277344 301.1875 174.578125 300.902344 174.855469 300.59375 C 175.136719 300.289062 175.394531 299.960938 175.632812 299.613281 C 175.871094 299.261719 176.089844 298.894531 176.285156 298.503906 C 176.484375 298.117188 176.65625 297.710938 176.808594 297.289062 C 176.960938 296.863281 177.089844 296.425781 177.195312 295.96875 L 222.410156 101.917969 C 222.625 101.003906 222.742188 100.042969 222.765625 99.03125 C 222.789062 98.023438 222.714844 96.980469 222.550781 95.910156 C 222.382812 94.839844 222.125 93.757812 221.773438 92.667969 C 221.421875 91.578125 220.984375 90.503906 220.464844 89.4375 C 219.941406 88.371094 219.34375 87.335938 218.671875 86.332031 C 218 85.332031 217.265625 84.378906 216.46875 83.480469 C 215.671875 82.582031 214.832031 81.75 213.941406 80.988281 C 213.050781 80.226562 212.128906 79.546875 211.179688 78.949219 C 209.476562 77.882812 207.761719 77.128906 206.035156 76.683594 Z M 92.996094 85.023438 C 91.03125 84.382812 89.167969 84.167969 87.402344 84.382812 C 85.636719 84.59375 84.105469 85.21875 82.804688 86.25 L 20.535156 135.769531 C 20.1875 136.046875 19.859375 136.351562 19.554688 136.679688 C 19.25 137.011719 18.96875 137.367188 18.710938 137.75 C 18.457031 138.128906 18.222656 138.53125 18.015625 138.960938 C 17.808594 139.386719 17.628906 139.832031 17.476562 140.300781 C 17.320312 140.765625 17.195312 141.253906 17.09375 141.753906 C 16.996094 142.257812 16.921875 142.777344 16.878906 143.308594 C 16.835938 143.839844 16.820312 144.386719 16.832031 144.941406 C 16.84375 145.5 16.882812 146.0625 16.949219 146.636719 C 17.019531 147.210938 17.113281 147.792969 17.234375 148.375 C 17.359375 148.960938 17.507812 149.546875 17.683594 150.136719 C 17.863281 150.726562 18.0625 151.316406 18.292969 151.902344 C 18.519531 152.488281 18.773438 153.074219 19.050781 153.652344 C 19.328125 154.230469 19.628906 154.800781 19.953125 155.363281 C 20.277344 155.925781 20.621094 156.476562 20.984375 157.015625 C 21.351562 157.558594 21.738281 158.085938 22.140625 158.597656 C 22.542969 159.109375 22.964844 159.605469 23.402344 160.085938 L 101.613281 245.667969 C 102.015625 246.109375 102.429688 246.535156 102.859375 246.945312 C 103.289062 247.351562 103.726562 247.742188 104.175781 248.113281 C 104.621094 248.484375 105.078125 248.835938 105.542969 249.167969 C 106.007812 249.496094 106.476562 249.804688 106.953125 250.09375 C 107.429688 250.378906 107.910156 250.640625 108.394531 250.882812 C 108.875 251.121094 109.359375 251.335938 109.847656 251.527344 C 110.332031 251.71875 110.816406 251.886719 111.300781 252.027344 C 111.78125 252.167969 112.261719 252.28125 112.738281 252.367188 C 113.214844 252.457031 113.6875 252.519531 114.152344 252.554688 C 114.617188 252.589844 115.074219 252.597656 115.519531 252.578125 C 115.96875 252.5625 116.410156 252.515625 116.835938 252.445312 C 117.265625 252.375 117.683594 252.277344 118.085938 252.152344 C 118.488281 252.03125 118.878906 251.878906 119.253906 251.707031 C 119.632812 251.53125 119.992188 251.332031 120.335938 251.105469 C 120.679688 250.882812 121.003906 250.632812 121.3125 250.363281 C 121.621094 250.089844 121.910156 249.796875 122.179688 249.480469 C 122.722656 248.84375 123.179688 248.128906 123.554688 247.332031 C 123.925781 246.539062 124.207031 245.675781 124.398438 244.75 C 124.589844 243.824219 124.6875 242.851562 124.6875 241.832031 C 124.6875 240.8125 124.59375 239.765625 124.40625 238.691406 C 124.214844 237.617188 123.933594 236.535156 123.5625 235.445312 C 123.191406 234.355469 122.734375 233.28125 122.195312 232.222656 C 121.65625 231.160156 121.042969 230.132812 120.355469 229.140625 C 119.667969 228.148438 118.917969 227.210938 118.109375 226.324219 L 53.976562 156.144531 L 105.039062 115.542969 C 105.683594 115.03125 106.25 114.429688 106.738281 113.738281 C 107.226562 113.050781 107.632812 112.285156 107.945312 111.441406 C 108.261719 110.601562 108.484375 109.699219 108.613281 108.738281 C 108.746094 107.78125 108.78125 106.777344 108.71875 105.738281 C 108.65625 104.695312 108.503906 103.632812 108.253906 102.546875 C 108.003906 101.460938 107.667969 100.378906 107.238281 99.292969 C 106.808594 98.210938 106.300781 97.144531 105.710938 96.101562 C 105.121094 95.058594 104.460938 94.058594 103.730469 93.09375 C 102.253906 91.152344 100.585938 89.484375 98.726562 88.085938 C 96.867188 86.6875 94.957031 85.667969 92.996094 85.023438 Z M 257.929688 127.371094 C 256 127.015625 254.21875 127.085938 252.582031 127.585938 C 250.949219 128.085938 249.582031 128.980469 248.488281 130.261719 C 247.945312 130.898438 247.488281 131.613281 247.117188 132.40625 C 246.742188 133.203125 246.460938 134.0625 246.269531 134.988281 C 246.078125 135.914062 245.984375 136.886719 245.980469 137.910156 C 245.980469 138.929688 246.074219 139.976562 246.265625 141.050781 C 246.453125 142.125 246.734375 143.207031 247.105469 144.296875 C 247.476562 145.386719 247.933594 146.460938 248.472656 147.523438 C 249.011719 148.582031 249.625 149.609375 250.316406 150.601562 C 251.003906 151.59375 251.75 152.53125 252.558594 153.417969 L 316.691406 223.597656 L 265.632812 264.199219 C 264.988281 264.714844 264.421875 265.316406 263.929688 266.003906 C 263.441406 266.695312 263.039062 267.460938 262.722656 268.300781 C 262.410156 269.140625 262.183594 270.042969 262.054688 271.003906 C 261.925781 271.960938 261.890625 272.964844 261.953125 274.007812 C 262.011719 275.046875 262.167969 276.109375 262.417969 277.195312 C 262.664062 278.277344 263.003906 279.363281 263.433594 280.449219 C 263.859375 281.53125 264.371094 282.59375 264.960938 283.636719 C 265.550781 284.679688 266.210938 285.683594 266.941406 286.644531 C 267.304688 287.125 267.683594 287.589844 268.078125 288.042969 C 268.472656 288.496094 268.878906 288.929688 269.296875 289.351562 C 269.71875 289.773438 270.148438 290.175781 270.589844 290.558594 C 271.03125 290.945312 271.480469 291.308594 271.941406 291.65625 C 272.402344 292 272.867188 292.324219 273.339844 292.628906 C 273.8125 292.929688 274.289062 293.210938 274.769531 293.464844 C 275.25 293.722656 275.734375 293.957031 276.21875 294.164062 C 276.703125 294.375 277.191406 294.558594 277.675781 294.714844 C 278.160156 294.875 278.640625 295.007812 279.121094 295.113281 C 279.597656 295.21875 280.074219 295.300781 280.542969 295.355469 C 281.011719 295.410156 281.476562 295.4375 281.929688 295.4375 C 282.382812 295.4375 282.832031 295.410156 283.265625 295.359375 C 283.703125 295.308594 284.128906 295.226562 284.539062 295.121094 C 284.953125 295.019531 285.351562 294.886719 285.738281 294.730469 C 286.125 294.574219 286.496094 294.390625 286.851562 294.183594 C 287.207031 293.976562 287.546875 293.746094 287.867188 293.488281 L 350.136719 243.972656 C 350.484375 243.695312 350.808594 243.390625 351.113281 243.058594 C 351.417969 242.730469 351.699219 242.375 351.957031 241.992188 C 352.214844 241.613281 352.445312 241.207031 352.652344 240.78125 C 352.859375 240.355469 353.039062 239.90625 353.195312 239.441406 C 353.347656 238.972656 353.472656 238.488281 353.574219 237.984375 C 353.675781 237.480469 353.746094 236.964844 353.789062 236.433594 C 353.835938 235.898438 353.851562 235.355469 353.839844 234.796875 C 353.828125 234.242188 353.785156 233.675781 353.71875 233.101562 C 353.652344 232.527344 353.554688 231.949219 353.433594 231.363281 C 353.3125 230.777344 353.160156 230.191406 352.984375 229.601562 C 352.808594 229.011719 352.605469 228.425781 352.378906 227.839844 C 352.148438 227.25 351.894531 226.667969 351.617188 226.089844 C 351.339844 225.511719 351.039062 224.941406 350.71875 224.378906 C 350.394531 223.816406 350.050781 223.265625 349.683594 222.722656 C 349.316406 222.183594 348.933594 221.65625 348.527344 221.144531 C 348.125 220.632812 347.703125 220.136719 347.265625 219.65625 L 269.058594 134.070312 C 267.421875 132.285156 265.644531 130.808594 263.714844 129.648438 C 261.789062 128.488281 259.859375 127.730469 257.929688 127.371094 Z M 257.929688 127.371094 " clip-rule="nonzero"/></clipPath><linearGradient x1="-69.661591" gradientTransform="matrix(1.697413, 0, 0, 1.696396, 336.965476, -102.724578)" y1="89.165393" x2="-104.045206" gradientUnits="userSpaceOnUse" y2="256.804331" id="de6c009819"><stop stop-opacity="1" stop-color="rgb(50.19989%, 31.759644%, 100%)" offset="0"/><stop stop-opacity="1" stop-color="rgb(50.32196%, 31.925964%, 100%)" offset="0.233125"/><stop stop-opacity="1" stop-color="rgb(50.444031%, 32.092285%, 100%)" offset="0.25"/><stop stop-opacity="1" stop-color="rgb(50.523376%, 32.199097%, 100%)" offset="0.257812"/><stop stop-opacity="1" stop-color="rgb(50.683594%, 32.415771%, 100%)" offset="0.265625"/><stop stop-opacity="1" stop-color="rgb(50.843811%, 32.632446%, 100%)" offset="0.273437"/><stop stop-opacity="1" stop-color="rgb(51.004028%, 32.849121%, 100%)" offset="0.28125"/><stop stop-opacity="1" stop-color="rgb(51.16272%, 33.065796%, 100%)" offset="0.289062"/><stop stop-opacity="1" stop-color="rgb(51.322937%, 33.282471%, 100%)" offset="0.296875"/><stop stop-opacity="1" stop-color="rgb(51.483154%, 33.499146%, 100%)" offset="0.304688"/><stop stop-opacity="1" stop-color="rgb(51.643372%, 33.71582%, 100%)" offset="0.3125"/><stop stop-opacity="1" stop-color="rgb(51.802063%, 33.930969%, 100%)" offset="0.320312"/><stop stop-opacity="1" stop-color="rgb(51.96228%, 34.147644%, 100%)" offset="0.328125"/><stop stop-opacity="1" stop-color="rgb(52.122498%, 34.364319%, 100%)" offset="0.335937"/><stop stop-opacity="1" stop-color="rgb(52.282715%, 34.580994%, 100%)" offset="0.34375"/><stop stop-opacity="1" stop-color="rgb(52.441406%, 34.797668%, 100%)" offset="0.351562"/><stop stop-opacity="1" stop-color="rgb(52.601624%, 35.014343%, 100%)" offset="0.359375"/><stop stop-opacity="1" stop-color="rgb(52.761841%, 35.231018%, 100%)" offset="0.367187"/><stop stop-opacity="1" stop-color="rgb(52.922058%, 35.446167%, 100%)" offset="0.375"/><stop stop-opacity="1" stop-color="rgb(53.08075%, 35.662842%, 100%)" offset="0.382812"/><stop stop-opacity="1" stop-color="rgb(53.240967%, 35.879517%, 100%)" offset="0.390625"/><stop stop-opacity="1" stop-color="rgb(53.401184%, 36.096191%, 100%)" offset="0.398437"/><stop stop-opacity="1" stop-color="rgb(53.561401%, 36.312866%, 100%)" offset="0.40625"/><stop stop-opacity="1" stop-color="rgb(53.720093%, 36.529541%, 100%)" offset="0.414062"/><stop stop-opacity="1" stop-color="rgb(53.88031%, 36.746216%, 100%)" offset="0.421875"/><stop stop-opacity="1" stop-color="rgb(54.040527%, 36.962891%, 100%)" offset="0.429688"/><stop stop-opacity="1" stop-color="rgb(54.200745%, 37.17804%, 100%)" offset="0.4375"/><stop stop-opacity="1" stop-color="rgb(54.359436%, 37.394714%, 100%)" offset="0.445312"/><stop stop-opacity="1" stop-color="rgb(54.519653%, 37.611389%, 100%)" offset="0.453125"/><stop stop-opacity="1" stop-color="rgb(54.679871%, 37.828064%, 100%)" offset="0.460938"/><stop stop-opacity="1" stop-color="rgb(54.840088%, 38.044739%, 100%)" offset="0.46875"/><stop stop-opacity="1" stop-color="rgb(54.998779%, 38.261414%, 100%)" offset="0.476562"/><stop stop-opacity="1" stop-color="rgb(55.158997%, 38.478088%, 100%)" offset="0.484375"/><stop stop-opacity="1" stop-color="rgb(55.319214%, 38.693237%, 100%)" offset="0.492188"/><stop stop-opacity="1" stop-color="rgb(55.479431%, 38.909912%, 100%)" offset="0.5"/><stop stop-opacity="1" stop-color="rgb(55.638123%, 39.126587%, 100%)" offset="0.507812"/><stop stop-opacity="1" stop-color="rgb(55.79834%, 39.343262%, 100%)" offset="0.515625"/><stop stop-opacity="1" stop-color="rgb(55.958557%, 39.559937%, 100%)" offset="0.523437"/><stop stop-opacity="1" stop-color="rgb(56.118774%, 39.776611%, 100%)" offset="0.53125"/><stop stop-opacity="1" stop-color="rgb(56.277466%, 39.993286%, 100%)" offset="0.539062"/><stop stop-opacity="1" stop-color="rgb(56.437683%, 40.209961%, 100%)" offset="0.546875"/><stop stop-opacity="1" stop-color="rgb(56.5979%, 40.42511%, 100%)" offset="0.554687"/><stop stop-opacity="1" stop-color="rgb(56.758118%, 40.641785%, 100%)" offset="0.5625"/><stop stop-opacity="1" stop-color="rgb(56.848145%, 40.763855%, 100%)" offset="0.625"/><stop stop-opacity="1" stop-color="rgb(56.858826%, 40.779114%, 100%)" offset="0.75"/><stop stop-opacity="1" stop-color="rgb(56.858826%, 40.779114%, 100%)" offset="0.766875"/><stop stop-opacity="1" stop-color="rgb(56.858826%, 40.779114%, 100%)" offset="1"/></linearGradient></defs><g clip-path="url(#0a33215775)"><path fill="#45049f" d="M 214.375 67.484375 C 211.796875 67.4375 209.378906 68.25 207.265625 69.566406 C 207.230469 69.558594 207.199219 69.554688 207.164062 69.546875 L 193.496094 73.148438 L 193.933594 73.148438 C 193.667969 73.15625 193.40625 73.199219 193.148438 73.269531 L 193.148438 73.238281 C 193.109375 73.25 193.078125 73.277344 193.035156 73.285156 C 193.03125 73.285156 193.027344 73.289062 193.027344 73.289062 C 188.378906 74.425781 184.875 78.21875 183.757812 83.007812 L 138.542969 277.058594 C 136.289062 286.738281 142.054688 297.867188 151.265625 303.640625 C 156.027344 306.628906 161.367188 307.730469 166.050781 306.050781 C 166.070312 306.054688 166.09375 306.058594 166.113281 306.0625 L 182.492188 301.035156 L 182.242188 301.101562 C 182.839844 300.964844 183.421875 300.78125 183.988281 300.5625 C 184.070312 300.511719 184.148438 300.453125 184.226562 300.394531 L 184.195312 300.488281 C 188.011719 298.9375 190.71875 295.472656 191.6875 291.332031 C 191.6875 291.332031 191.6875 291.332031 191.6875 291.328125 L 236.902344 97.277344 L 236.703125 97.875 C 237.554688 95.949219 237.628906 93.976562 237.453125 91.691406 C 237.273438 89.40625 236.734375 86.867188 235.765625 84.269531 C 233.839844 79.128906 230.148438 73.691406 224.039062 70.628906 C 222.128906 69.449219 220.128906 68.546875 218.082031 68.023438 C 216.863281 67.707031 215.632812 67.527344 214.414062 67.488281 C 214.390625 67.496094 214.367188 67.503906 214.34375 67.515625 Z M 214.238281 74.222656 C 214.914062 74.242188 215.644531 74.34375 216.410156 74.542969 C 217.742188 74.882812 219.175781 75.503906 220.601562 76.398438 C 220.699219 76.460938 220.800781 76.519531 220.910156 76.570312 C 225.179688 78.660156 227.953125 82.621094 229.453125 86.625 C 230.199219 88.628906 230.613281 90.613281 230.734375 92.207031 C 230.859375 93.804688 230.578125 95.066406 230.542969 95.152344 C 230.457031 95.34375 230.386719 95.542969 230.339844 95.75 L 185.125 289.800781 C 184.566406 292.195312 183.390625 293.550781 181.660156 294.253906 C 181.65625 294.253906 181.65625 294.257812 181.652344 294.257812 C 181.644531 294.261719 181.640625 294.261719 181.632812 294.265625 C 181.359375 294.375 181.070312 294.464844 180.761719 294.535156 C 180.675781 294.554688 180.59375 294.574219 180.511719 294.601562 L 164.136719 299.625 L 164.21875 299.703125 C 164.117188 299.699219 164.015625 299.699219 163.914062 299.703125 C 161.746094 300.539062 158.394531 300.164062 154.84375 297.9375 L 154.84375 297.941406 C 148.070312 293.691406 143.785156 284.253906 145.105469 278.585938 L 190.316406 84.535156 C 190.964844 81.769531 192.371094 80.378906 194.609375 79.832031 L 194.464844 79.878906 L 193.933594 79.878906 C 194.191406 79.875 194.449219 79.84375 194.699219 79.78125 C 194.722656 79.761719 194.746094 79.742188 194.769531 79.722656 L 194.769531 79.769531 C 194.777344 79.769531 194.78125 79.769531 194.789062 79.765625 C 194.851562 79.75 194.910156 79.734375 194.96875 79.714844 L 194.878906 79.746094 L 208.878906 76.058594 L 208.46875 75.796875 C 209.070312 75.851562 209.644531 75.753906 210.195312 75.5 C 211.210938 74.65625 212.507812 74.191406 214.238281 74.222656 Z M 98.210938 75.636719 L 98.253906 75.679688 C 98.199219 75.667969 98.140625 75.660156 98.085938 75.652344 C 97.464844 75.75 96.867188 75.929688 96.273438 76.113281 C 96.199219 76.097656 96.125 76.085938 96.050781 76.078125 L 77.605469 81.75 C 76.964844 81.984375 76.445312 82.371094 76.039062 82.917969 C 75.636719 83.464844 75.417969 84.078125 75.386719 84.757812 L 77.378906 81.84375 C 76.265625 82.277344 75.21875 82.871094 74.285156 83.605469 C 74.28125 83.609375 74.273438 83.613281 74.269531 83.617188 L 12.003906 133.132812 C 12.003906 133.132812 12 133.132812 12 133.132812 C 7.898438 136.398438 6.546875 141.765625 7.167969 147.035156 C 7.792969 152.300781 10.292969 157.773438 14.480469 162.355469 L 92.691406 247.9375 C 98.101562 253.859375 105.304688 257.199219 111.957031 255.554688 L 111.816406 255.472656 C 111.921875 255.488281 112.03125 255.5 112.140625 255.507812 C 112.523438 255.40625 112.90625 255.292969 113.277344 255.15625 L 113.105469 255.214844 L 129.71875 250.121094 C 129.808594 250.058594 129.898438 249.984375 129.984375 249.910156 C 132.273438 249.273438 134.367188 248.074219 135.929688 246.289062 C 135.9375 246.28125 135.945312 246.269531 135.953125 246.257812 C 139.074219 242.601562 139.792969 237.597656 138.929688 232.703125 C 138.070312 227.8125 135.632812 222.839844 131.808594 218.652344 L 70.105469 151.132812 L 118.347656 112.773438 C 122.101562 109.789062 123.574219 104.976562 123.289062 100.136719 C 123.007812 95.296875 121.070312 90.195312 117.625 85.660156 C 114.308594 81.289062 109.984375 77.96875 105.25 76.421875 C 102.910156 75.65625 100.519531 75.359375 98.210938 75.636719 Z M 99.054688 82.320312 C 100.234375 82.1875 101.628906 82.324219 103.15625 82.820312 C 106.277344 83.839844 109.675781 86.328125 112.257812 89.726562 C 114.953125 93.277344 116.375 97.246094 116.566406 100.527344 C 116.757812 103.8125 115.816406 106.183594 114.152344 107.507812 L 63.09375 148.105469 C 62.910156 148.25 62.746094 148.410156 62.601562 148.589844 C 62.453125 148.765625 62.324219 148.957031 62.214844 149.160156 C 62.105469 149.363281 62.019531 149.574219 61.957031 149.796875 C 61.890625 150.019531 61.847656 150.242188 61.832031 150.472656 C 61.8125 150.703125 61.816406 150.933594 61.847656 151.160156 C 61.875 151.390625 61.925781 151.613281 62.003906 151.832031 C 62.078125 152.050781 62.171875 152.257812 62.289062 152.457031 C 62.410156 152.65625 62.546875 152.839844 62.699219 153.011719 L 126.835938 223.191406 L 126.832031 223.191406 C 129.808594 226.449219 131.683594 230.382812 132.296875 233.871094 C 132.910156 237.347656 132.261719 240.183594 130.835938 241.867188 C 130.074219 242.734375 129.144531 243.296875 127.917969 243.570312 C 127.855469 243.632812 127.792969 243.699219 127.734375 243.765625 L 127.746094 243.683594 L 111.128906 248.777344 C 111.070312 248.792969 111.015625 248.8125 110.957031 248.832031 C 110.765625 248.902344 110.566406 248.964844 110.359375 249.019531 C 110.351562 249.019531 110.347656 249.019531 110.339844 249.023438 C 107.125 249.816406 101.859375 247.988281 97.664062 243.398438 L 19.457031 157.816406 C 16.191406 154.242188 14.292969 149.917969 13.859375 146.246094 C 13.425781 142.574219 14.367188 139.859375 16.199219 138.402344 L 78.453125 88.898438 C 78.859375 88.578125 79.304688 88.320312 79.8125 88.125 C 80.128906 88 80.421875 87.832031 80.6875 87.625 C 80.953125 87.414062 81.183594 87.167969 81.375 86.886719 C 81.566406 86.605469 81.714844 86.304688 81.8125 85.980469 C 81.914062 85.65625 81.964844 85.324219 81.964844 84.984375 L 81.964844 87.453125 L 97.910156 82.546875 C 97.945312 82.5625 97.980469 82.574219 98.015625 82.585938 C 98.335938 82.472656 98.6875 82.386719 99.054688 82.320312 Z M 266.222656 118.394531 C 265.046875 118.441406 263.898438 118.628906 262.792969 118.96875 L 245.222656 124.355469 C 245.183594 124.371094 245.136719 124.382812 245.078125 124.398438 L 244.773438 124.496094 C 244.757812 124.515625 244.742188 124.539062 244.726562 124.558594 C 242.710938 125.246094 240.902344 126.453125 239.511719 128.054688 C 239.503906 128.0625 239.496094 128.070312 239.492188 128.078125 C 236.371094 131.734375 235.648438 136.738281 236.511719 141.632812 C 237.371094 146.527344 239.8125 151.5 243.636719 155.6875 L 305.339844 223.207031 L 257.097656 261.566406 C 253.34375 264.550781 251.871094 269.359375 252.15625 274.199219 C 252.4375 279.039062 254.375 284.140625 257.820312 288.679688 C 263.046875 295.5625 270.628906 299.84375 277.902344 298.601562 L 277.75 298.289062 C 277.914062 298.375 278.082031 298.445312 278.257812 298.5 C 279.179688 298.3125 280.082031 298.066406 280.929688 297.683594 L 280.53125 297.832031 L 297.910156 292.554688 C 298.019531 292.492188 298.125 292.421875 298.226562 292.34375 L 298.1875 292.453125 C 299.261719 292.019531 300.265625 291.4375 301.171875 290.71875 C 301.171875 290.71875 301.171875 290.71875 301.175781 290.714844 L 363.445312 241.203125 C 363.445312 241.203125 363.445312 241.199219 363.445312 241.199219 C 367.546875 237.9375 368.894531 232.570312 368.273438 227.304688 C 367.652344 222.035156 365.152344 216.5625 360.964844 211.980469 L 282.753906 126.398438 C 279.070312 122.367188 274.535156 119.542969 269.753906 118.660156 C 268.574219 118.4375 267.390625 118.347656 266.222656 118.394531 Z M 266.492188 125.121094 C 266.492188 125.121094 266.496094 125.121094 266.496094 125.121094 C 267.121094 125.09375 267.804688 125.140625 268.523438 125.273438 C 271.457031 125.820312 274.929688 127.816406 277.78125 130.9375 L 355.988281 216.523438 C 359.253906 220.097656 361.152344 224.421875 361.585938 228.09375 C 362.019531 231.761719 361.078125 234.472656 359.246094 235.933594 L 296.980469 285.449219 C 296.59375 285.753906 296.167969 285.996094 295.695312 286.191406 L 278.574219 291.390625 C 278.4375 291.429688 278.304688 291.480469 278.175781 291.539062 C 277.75 291.730469 277.28125 291.875 276.765625 291.964844 C 276.765625 291.964844 276.761719 291.964844 276.761719 291.964844 C 273.105469 292.585938 267.261719 289.976562 263.1875 284.609375 C 260.492188 281.058594 259.070312 277.09375 258.878906 273.808594 C 258.6875 270.527344 259.632812 268.15625 261.292969 266.835938 L 312.351562 226.230469 C 312.535156 226.085938 312.699219 225.925781 312.84375 225.75 C 312.992188 225.570312 313.121094 225.382812 313.230469 225.179688 C 313.335938 224.972656 313.425781 224.761719 313.488281 224.539062 C 313.554688 224.320312 313.59375 224.09375 313.613281 223.863281 C 313.632812 223.632812 313.625 223.40625 313.597656 223.175781 C 313.570312 222.945312 313.515625 222.722656 313.441406 222.503906 C 313.367188 222.285156 313.273438 222.078125 313.152344 221.878906 C 313.035156 221.683594 312.898438 221.496094 312.746094 221.328125 L 248.609375 151.148438 C 245.632812 147.890625 243.761719 143.957031 243.148438 140.46875 C 242.535156 136.992188 243.179688 134.152344 244.605469 132.464844 C 245.234375 131.746094 245.976562 131.242188 246.910156 130.925781 C 246.933594 130.902344 246.953125 130.882812 246.976562 130.859375 L 247.082031 130.832031 C 247.089844 130.828125 247.097656 130.824219 247.105469 130.820312 C 247.125 130.8125 247.15625 130.804688 247.191406 130.792969 C 247.195312 130.792969 247.195312 130.792969 247.199219 130.792969 L 264.289062 125.554688 L 263.785156 125.554688 C 264.121094 125.554688 264.453125 125.503906 264.777344 125.402344 C 265.292969 125.246094 265.863281 125.144531 266.492188 125.117188 Z M 112.179688 255.496094 L 112.148438 255.507812 C 112.148438 255.507812 112.152344 255.507812 112.15625 255.507812 Z M 112.179688 255.496094 " fill-opacity="1" fill-rule="nonzero"/></g><path fill="#d9cef8" d="M 214.3125 70.851562 C 211.839844 70.804688 209.75 71.492188 208.039062 72.910156 L 208.019531 72.804688 L 193.910156 76.519531 L 204.101562 80.871094 L 159.46875 272.417969 C 159.277344 273.265625 159.164062 274.152344 159.132812 275.085938 C 159.101562 276.015625 159.15625 276.976562 159.289062 277.960938 C 159.421875 278.945312 159.632812 279.941406 159.925781 280.949219 C 160.214844 281.957031 160.582031 282.960938 161.023438 283.957031 C 161.464844 284.953125 161.972656 285.925781 162.546875 286.878906 C 163.125 287.832031 163.757812 288.746094 164.449219 289.621094 C 165.140625 290.496094 165.878906 291.320312 166.660156 292.09375 C 167.445312 292.867188 168.265625 293.574219 169.117188 294.214844 L 165.125 302.84375 L 181.5 297.816406 C 181.972656 297.707031 182.429688 297.566406 182.871094 297.394531 L 182.933594 297.375 L 182.925781 297.367188 C 184.316406 296.804688 185.480469 295.9375 186.421875 294.769531 C 187.363281 293.601562 188.023438 292.199219 188.40625 290.566406 L 233.621094 96.515625 C 233.835938 95.601562 233.953125 94.640625 233.976562 93.628906 C 234 92.617188 233.925781 91.578125 233.757812 90.507812 C 233.59375 89.433594 233.332031 88.355469 232.980469 87.265625 C 232.632812 86.175781 232.195312 85.097656 231.671875 84.03125 C 231.152344 82.964844 230.554688 81.929688 229.882812 80.929688 C 229.210938 79.925781 228.476562 78.976562 227.679688 78.074219 C 226.882812 77.175781 226.039062 76.34375 225.148438 75.582031 C 224.261719 74.820312 223.339844 74.140625 222.390625 73.546875 C 220.6875 72.480469 218.972656 71.726562 217.246094 71.28125 C 216.246094 71.023438 215.265625 70.882812 214.3125 70.851562 Z M 98.613281 78.976562 C 98.011719 79.074219 97.429688 79.21875 96.875 79.417969 L 97.042969 79.292969 L 78.597656 84.96875 L 78.65625 93.058594 L 31.746094 130.363281 C 31.394531 130.640625 31.070312 130.945312 30.765625 131.277344 C 30.460938 131.605469 30.179688 131.964844 29.921875 132.34375 C 29.667969 132.726562 29.433594 133.128906 29.226562 133.554688 C 29.019531 133.980469 28.839844 134.429688 28.6875 134.894531 C 28.53125 135.363281 28.40625 135.847656 28.304688 136.351562 C 28.207031 136.855469 28.132812 137.371094 28.089844 137.90625 C 28.046875 138.4375 28.03125 138.980469 28.042969 139.539062 C 28.054688 140.09375 28.09375 140.660156 28.160156 141.234375 C 28.226562 141.808594 28.324219 142.386719 28.445312 142.972656 C 28.570312 143.558594 28.71875 144.144531 28.894531 144.734375 C 29.074219 145.324219 29.273438 145.910156 29.503906 146.5 C 29.730469 147.085938 29.984375 147.667969 30.261719 148.246094 C 30.539062 148.824219 30.839844 149.394531 31.164062 149.957031 C 31.488281 150.519531 31.832031 151.070312 32.195312 151.613281 C 32.5625 152.152344 32.949219 152.679688 33.351562 153.191406 C 33.753906 153.707031 34.175781 154.203125 34.613281 154.679688 L 105.964844 232.761719 L 111.152344 252.292969 L 128.730469 246.902344 L 128.65625 246.855469 C 130.5625 246.429688 132.144531 245.503906 133.390625 244.074219 C 133.933594 243.4375 134.390625 242.722656 134.761719 241.929688 C 135.136719 241.132812 135.417969 240.273438 135.609375 239.347656 C 135.800781 238.421875 135.894531 237.449219 135.898438 236.429688 C 135.898438 235.410156 135.804688 234.363281 135.613281 233.285156 C 135.425781 232.210938 135.144531 231.128906 134.773438 230.042969 C 134.402344 228.953125 133.945312 227.878906 133.40625 226.816406 C 132.867188 225.757812 132.253906 224.730469 131.566406 223.738281 C 130.878906 222.746094 130.128906 221.808594 129.320312 220.921875 L 65.1875 150.742188 L 116.25 110.136719 C 116.894531 109.625 117.460938 109.023438 117.949219 108.335938 C 118.4375 107.644531 118.839844 106.878906 119.15625 106.039062 C 119.472656 105.195312 119.695312 104.296875 119.824219 103.335938 C 119.957031 102.375 119.988281 101.375 119.929688 100.332031 C 119.867188 99.289062 119.714844 98.226562 119.464844 97.144531 C 119.214844 96.058594 118.875 94.972656 118.449219 93.890625 C 118.019531 92.804688 117.511719 91.742188 116.921875 90.699219 C 116.332031 89.65625 115.671875 88.652344 114.941406 87.691406 C 113.464844 85.75 111.796875 84.078125 109.9375 82.679688 C 108.078125 81.28125 106.167969 80.261719 104.203125 79.621094 C 102.242188 78.980469 100.378906 78.765625 98.613281 78.976562 Z M 266.359375 121.757812 C 265.457031 121.792969 264.597656 121.9375 263.785156 122.1875 L 263.78125 122.1875 L 245.761719 127.714844 L 257.246094 131.941406 C 257.195312 133.246094 257.304688 134.597656 257.574219 136 C 257.84375 137.398438 258.261719 138.800781 258.832031 140.207031 C 259.402344 141.613281 260.105469 142.980469 260.945312 144.300781 C 261.78125 145.625 262.722656 146.859375 263.769531 148.011719 L 327.902344 218.191406 L 276.839844 258.796875 C 276.195312 259.308594 275.628906 259.910156 275.140625 260.601562 C 274.652344 261.289062 274.25 262.054688 273.933594 262.898438 C 273.617188 263.738281 273.394531 264.636719 273.265625 265.597656 C 273.136719 266.558594 273.101562 267.558594 273.164062 268.601562 C 273.222656 269.644531 273.378906 270.707031 273.628906 271.789062 C 273.875 272.875 274.214844 273.960938 274.644531 275.042969 C 275.070312 276.128906 275.578125 277.191406 276.171875 278.234375 C 276.761719 279.277344 277.421875 280.28125 278.152344 281.242188 C 279.382812 282.847656 280.75 284.269531 282.261719 285.507812 C 283.769531 286.75 285.339844 287.742188 286.96875 288.488281 L 277.332031 295.285156 L 296.929688 289.335938 L 296.925781 289.332031 C 297.710938 289.015625 298.425781 288.601562 299.078125 288.085938 L 361.347656 238.570312 C 361.695312 238.292969 362.019531 237.988281 362.324219 237.65625 C 362.628906 237.324219 362.910156 236.96875 363.167969 236.589844 C 363.425781 236.207031 363.65625 235.804688 363.863281 235.378906 C 364.070312 234.949219 364.25 234.503906 364.402344 234.035156 C 364.558594 233.570312 364.683594 233.085938 364.785156 232.582031 C 364.882812 232.078125 364.957031 231.5625 365 231.027344 C 365.042969 230.496094 365.0625 229.949219 365.050781 229.394531 C 365.039062 228.835938 364.996094 228.273438 364.929688 227.699219 C 364.863281 227.125 364.765625 226.546875 364.644531 225.960938 C 364.519531 225.375 364.371094 224.789062 364.195312 224.199219 C 364.019531 223.609375 363.816406 223.019531 363.585938 222.433594 C 363.359375 221.847656 363.105469 221.265625 362.828125 220.6875 C 362.550781 220.109375 362.25 219.539062 361.925781 218.976562 C 361.605469 218.414062 361.257812 217.859375 360.894531 217.320312 C 360.527344 216.78125 360.144531 216.253906 359.738281 215.738281 C 359.335938 215.226562 358.914062 214.730469 358.476562 214.253906 L 280.269531 128.667969 C 278.632812 126.878906 276.851562 125.40625 274.925781 124.246094 C 273 123.085938 271.070312 122.324219 269.140625 121.96875 C 268.1875 121.789062 267.257812 121.71875 266.359375 121.757812 Z M 266.359375 121.757812 " fill-opacity="1" fill-rule="nonzero"/><path fill="#c5afff" d="M 230.460938 97.273438 L 220.589844 100.785156 C 217.636719 101.832031 215.417969 104.304688 214.710938 107.351562 L 170.757812 295.972656 C 169.980469 299.304688 167.984375 301.742188 165.125 302.84375 L 165.125 302.847656 L 181.5 297.816406 C 181.972656 297.710938 182.429688 297.570312 182.867188 297.398438 L 182.929688 297.378906 L 182.925781 297.371094 C 185.703125 296.242188 187.640625 293.835938 188.40625 290.566406 L 232.925781 99.46875 C 233.003906 99.136719 232.992188 98.804688 232.886719 98.476562 C 232.785156 98.148438 232.601562 97.871094 232.347656 97.640625 C 232.089844 97.410156 231.792969 97.265625 231.453125 97.199219 C 231.117188 97.132812 230.785156 97.15625 230.460938 97.273438 Z M 230.460938 97.273438 " fill-opacity="1" fill-rule="nonzero"/><g clip-path="url(#97cf66fbe0)"><g clip-path="url(#4a8fb7cea7)"><path fill="url(#7e3188c2e9)" d="M 10.382812 76.234375 L 10.382812 303.496094 L 347.414062 303.496094 L 347.414062 76.234375 Z M 10.382812 76.234375 " fill-rule="nonzero"/></g></g><path fill="#c5afff" d="M 65.1875 150.742188 L 47.542969 156.144531 L 96.550781 117.042969 C 98.589844 115.414062 100.84375 114.1875 103.316406 113.351562 L 114.097656 109.71875 C 114.261719 109.664062 114.421875 109.667969 114.582031 109.726562 C 114.742188 109.789062 114.863281 109.898438 114.945312 110.046875 C 115.027344 110.195312 115.050781 110.355469 115.019531 110.523438 C 114.984375 110.691406 114.902344 110.828125 114.765625 110.9375 Z M 65.1875 150.742188 " fill-opacity="1" fill-rule="nonzero"/><path fill="#c5afff" d="M 279.554688 294.609375 L 338.300781 248.246094 C 340.5 246.511719 342.910156 245.152344 345.53125 244.171875 L 356.59375 240.03125 C 356.800781 239.953125 357.007812 239.953125 357.214844 240.027344 C 357.421875 240.101562 357.582031 240.238281 357.6875 240.429688 C 357.796875 240.621094 357.832031 240.828125 357.789062 241.042969 C 357.746094 241.261719 357.636719 241.4375 357.464844 241.574219 L 296.929688 289.335938 Z M 279.554688 294.609375 " fill-opacity="1" fill-rule="nonzero"/><path fill="#8051ff" d="M 10.496094 145.820312 C 10.578125 147.023438 10.785156 148.25 11.113281 149.5 C 11.441406 150.75 11.886719 151.992188 12.449219 153.226562 C 13.007812 154.460938 13.671875 155.660156 14.433594 156.816406 C 15.195312 157.972656 16.039062 159.0625 16.964844 160.085938 L 95.175781 245.671875 C 95.578125 246.113281 95.996094 246.539062 96.421875 246.945312 C 96.851562 247.355469 97.289062 247.742188 97.738281 248.113281 C 98.1875 248.484375 98.644531 248.835938 99.105469 249.167969 C 99.570312 249.5 100.042969 249.808594 100.519531 250.09375 C 100.996094 250.378906 101.472656 250.644531 101.957031 250.882812 C 102.441406 251.125 102.925781 251.339844 103.410156 251.53125 C 103.894531 251.722656 104.378906 251.886719 104.863281 252.027344 C 105.347656 252.167969 105.828125 252.28125 106.304688 252.371094 C 106.78125 252.457031 107.25 252.519531 107.714844 252.554688 C 108.179688 252.589844 108.636719 252.597656 109.085938 252.582031 C 109.535156 252.5625 109.972656 252.519531 110.402344 252.445312 C 110.828125 252.375 111.246094 252.277344 111.648438 252.15625 C 112.054688 252.03125 112.445312 251.882812 112.820312 251.707031 C 113.195312 251.53125 113.554688 251.332031 113.898438 251.109375 C 114.242188 250.882812 114.566406 250.636719 114.875 250.363281 C 115.183594 250.089844 115.472656 249.796875 115.746094 249.480469 C 116.285156 248.84375 116.742188 248.128906 117.117188 247.332031 C 117.488281 246.539062 117.773438 245.679688 117.960938 244.753906 C 118.152344 243.828125 118.25 242.855469 118.25 241.835938 C 118.25 240.816406 118.15625 239.765625 117.96875 238.691406 C 117.777344 237.617188 117.5 236.535156 117.128906 235.445312 C 116.753906 234.359375 116.300781 233.28125 115.757812 232.222656 C 115.21875 231.160156 114.605469 230.136719 113.917969 229.144531 C 113.230469 228.152344 112.480469 227.210938 111.671875 226.328125 L 83.792969 195.820312 C 59.757812 183.046875 35.355469 166.699219 10.496094 145.820312 Z M 154.328125 224.144531 L 141.820312 277.824219 C 141.609375 278.734375 141.492188 279.699219 141.46875 280.707031 C 141.445312 281.71875 141.515625 282.761719 141.683594 283.832031 C 141.851562 284.902344 142.109375 285.980469 142.460938 287.070312 C 142.8125 288.160156 143.25 289.238281 143.769531 290.304688 C 144.292969 291.371094 144.886719 292.40625 145.5625 293.410156 C 146.234375 294.410156 146.964844 295.363281 147.761719 296.261719 C 148.558594 297.160156 149.402344 297.992188 150.292969 298.753906 C 151.183594 299.515625 152.105469 300.195312 153.054688 300.792969 C 153.527344 301.089844 154.007812 301.363281 154.488281 301.613281 C 154.96875 301.863281 155.453125 302.089844 155.941406 302.292969 C 156.425781 302.496094 156.910156 302.675781 157.394531 302.828125 C 157.878906 302.980469 158.359375 303.105469 158.835938 303.207031 C 159.316406 303.304688 159.789062 303.378906 160.257812 303.425781 C 160.726562 303.476562 161.183594 303.496094 161.636719 303.488281 C 162.089844 303.484375 162.535156 303.453125 162.96875 303.394531 C 163.402344 303.332031 163.824219 303.25 164.234375 303.136719 C 164.644531 303.023438 165.039062 302.886719 165.421875 302.726562 C 165.804688 302.5625 166.171875 302.375 166.523438 302.160156 C 166.875 301.945312 167.207031 301.710938 167.523438 301.449219 C 167.84375 301.1875 168.140625 300.902344 168.417969 300.597656 C 168.699219 300.289062 168.957031 299.960938 169.195312 299.613281 C 169.4375 299.265625 169.652344 298.894531 169.851562 298.507812 C 170.046875 298.121094 170.21875 297.714844 170.371094 297.289062 C 170.523438 296.867188 170.652344 296.425781 170.757812 295.972656 L 185.78125 231.5 C 175.347656 229.539062 164.863281 227.101562 154.328125 224.144531 Z M 347.226562 237.09375 C 328.4375 237.96875 309.644531 238.800781 290.796875 239.070312 L 259.195312 264.203125 C 258.550781 264.714844 257.984375 265.316406 257.496094 266.003906 C 257.007812 266.695312 256.605469 267.460938 256.289062 268.300781 C 255.972656 269.144531 255.75 270.042969 255.621094 271.003906 C 255.488281 271.964844 255.457031 272.964844 255.515625 274.007812 C 255.578125 275.050781 255.730469 276.113281 255.980469 277.195312 C 256.230469 278.28125 256.570312 279.363281 256.996094 280.449219 C 257.425781 281.535156 257.933594 282.597656 258.523438 283.640625 C 259.113281 284.683594 259.773438 285.683594 260.503906 286.648438 C 260.867188 287.125 261.246094 287.59375 261.640625 288.042969 C 262.035156 288.496094 262.441406 288.933594 262.863281 289.355469 C 263.28125 289.773438 263.710938 290.175781 264.15625 290.5625 C 264.597656 290.945312 265.046875 291.3125 265.503906 291.65625 C 265.964844 292.003906 266.429688 292.324219 266.902344 292.628906 C 267.375 292.929688 267.851562 293.210938 268.335938 293.46875 C 268.816406 293.722656 269.296875 293.957031 269.785156 294.164062 C 270.269531 294.375 270.753906 294.558594 271.238281 294.714844 C 271.722656 294.875 272.207031 295.007812 272.683594 295.113281 C 273.164062 295.222656 273.636719 295.300781 274.109375 295.355469 C 274.578125 295.410156 275.039062 295.4375 275.496094 295.4375 C 275.949219 295.4375 276.394531 295.414062 276.832031 295.359375 C 277.265625 295.308594 277.691406 295.230469 278.105469 295.125 C 278.519531 295.019531 278.917969 294.886719 279.304688 294.730469 C 279.691406 294.574219 280.0625 294.390625 280.417969 294.183594 C 280.769531 293.976562 281.109375 293.746094 281.429688 293.492188 L 343.699219 243.972656 C 344.667969 243.1875 345.449219 242.210938 346.050781 241.039062 C 346.648438 239.867188 347.042969 238.550781 347.226562 237.09375 Z M 347.226562 237.09375 " fill-opacity="1" fill-rule="nonzero"/><g clip-path="url(#041e551675)"><path fill="#45049f" d="M 220.808594 67.484375 C 218.230469 67.4375 215.816406 68.25 213.699219 69.566406 C 213.667969 69.558594 213.632812 69.554688 213.597656 69.546875 L 199.933594 73.148438 L 200.367188 73.148438 C 200.101562 73.15625 199.839844 73.199219 199.585938 73.269531 L 199.585938 73.238281 C 199.542969 73.25 199.511719 73.277344 199.472656 73.285156 C 199.46875 73.285156 199.46875 73.285156 199.46875 73.285156 C 199.464844 73.285156 199.464844 73.289062 199.460938 73.289062 C 194.816406 74.425781 191.308594 78.21875 190.191406 83.007812 L 144.980469 277.058594 C 142.722656 286.738281 148.488281 297.867188 157.699219 303.640625 C 162.460938 306.628906 167.800781 307.730469 172.484375 306.050781 C 172.507812 306.054688 172.527344 306.058594 172.546875 306.0625 L 188.925781 301.035156 L 188.675781 301.101562 C 189.273438 300.964844 189.855469 300.78125 190.425781 300.5625 C 190.503906 300.511719 190.582031 300.453125 190.660156 300.394531 L 190.628906 300.488281 C 194.449219 298.9375 197.152344 295.472656 198.121094 291.332031 C 198.121094 291.332031 198.121094 291.332031 198.121094 291.328125 L 243.335938 97.277344 L 243.136719 97.875 C 243.988281 95.949219 244.0625 93.976562 243.886719 91.691406 C 243.710938 89.40625 243.167969 86.867188 242.199219 84.269531 C 240.277344 79.128906 236.585938 73.691406 230.472656 70.628906 C 228.5625 69.449219 226.566406 68.546875 224.519531 68.023438 C 223.296875 67.707031 222.070312 67.527344 220.847656 67.488281 C 220.824219 67.496094 220.800781 67.503906 220.777344 67.515625 Z M 220.671875 74.222656 C 221.347656 74.242188 222.078125 74.34375 222.84375 74.542969 C 224.179688 74.882812 225.609375 75.503906 227.035156 76.398438 C 227.132812 76.460938 227.238281 76.519531 227.34375 76.570312 C 231.613281 78.660156 234.390625 82.621094 235.886719 86.625 C 236.636719 88.628906 237.046875 90.613281 237.167969 92.207031 C 237.292969 93.804688 237.015625 95.066406 236.976562 95.152344 C 236.890625 95.34375 236.824219 95.542969 236.773438 95.75 L 191.5625 289.800781 C 191 292.195312 189.824219 293.550781 188.09375 294.253906 C 188.089844 294.253906 188.089844 294.257812 188.085938 294.257812 C 188.082031 294.261719 188.074219 294.261719 188.066406 294.265625 C 187.792969 294.375 187.503906 294.464844 187.195312 294.535156 C 187.113281 294.554688 187.027344 294.574219 186.945312 294.601562 L 170.574219 299.625 L 170.652344 299.703125 C 170.550781 299.699219 170.449219 299.699219 170.351562 299.703125 C 168.179688 300.539062 164.832031 300.164062 161.28125 297.9375 L 161.28125 297.941406 C 154.507812 293.691406 150.21875 284.253906 151.539062 278.585938 L 196.753906 84.535156 C 197.398438 81.769531 198.804688 80.378906 201.042969 79.832031 L 200.902344 79.878906 L 200.371094 79.878906 C 200.628906 79.875 200.882812 79.84375 201.132812 79.78125 C 201.15625 79.761719 201.179688 79.742188 201.207031 79.722656 L 201.207031 79.769531 C 201.210938 79.769531 201.214844 79.769531 201.222656 79.765625 C 201.222656 79.765625 201.222656 79.765625 201.226562 79.765625 C 201.285156 79.75 201.34375 79.734375 201.40625 79.714844 L 201.316406 79.746094 L 215.316406 76.058594 L 214.90625 75.796875 C 215.503906 75.851562 216.082031 75.753906 216.628906 75.5 C 217.644531 74.65625 218.945312 74.191406 220.671875 74.222656 Z M 104.644531 75.636719 L 104.6875 75.679688 C 104.632812 75.667969 104.574219 75.660156 104.519531 75.652344 C 103.902344 75.75 103.304688 75.929688 102.710938 76.113281 C 102.636719 76.097656 102.5625 76.085938 102.488281 76.078125 L 84.039062 81.75 C 83.402344 81.984375 82.878906 82.371094 82.476562 82.917969 C 82.070312 83.464844 81.851562 84.078125 81.820312 84.757812 L 83.816406 81.84375 C 82.703125 82.277344 81.65625 82.871094 80.71875 83.605469 C 80.714844 83.609375 80.710938 83.613281 80.707031 83.617188 L 18.4375 133.132812 C 18.4375 133.132812 18.4375 133.132812 18.433594 133.132812 C 14.335938 136.398438 12.984375 141.765625 13.605469 147.035156 C 14.226562 152.300781 16.730469 157.773438 20.914062 162.355469 L 99.125 247.9375 C 104.539062 253.859375 111.742188 257.199219 118.394531 255.554688 L 118.25 255.472656 C 118.359375 255.488281 118.46875 255.5 118.574219 255.507812 C 118.960938 255.40625 119.339844 255.292969 119.710938 255.15625 L 119.539062 255.214844 L 136.152344 250.121094 C 136.246094 250.058594 136.332031 249.984375 136.417969 249.910156 C 138.707031 249.273438 140.804688 248.074219 142.363281 246.289062 C 142.371094 246.28125 142.378906 246.269531 142.390625 246.257812 C 145.507812 242.601562 146.226562 237.597656 145.367188 232.703125 C 144.507812 227.8125 142.066406 222.839844 138.242188 218.652344 L 76.542969 151.132812 L 124.78125 112.773438 C 128.535156 109.789062 130.007812 104.976562 129.726562 100.136719 C 129.441406 95.296875 127.503906 90.195312 124.058594 85.660156 C 120.742188 81.289062 116.417969 77.96875 111.6875 76.421875 C 109.34375 75.65625 106.957031 75.359375 104.644531 75.636719 Z M 105.492188 82.320312 C 106.667969 82.1875 108.0625 82.324219 109.589844 82.820312 C 112.710938 83.839844 116.109375 86.328125 118.691406 89.726562 C 121.386719 93.277344 122.808594 97.246094 123 100.527344 C 123.195312 103.8125 122.253906 106.183594 120.589844 107.507812 L 69.527344 148.105469 C 69.347656 148.25 69.183594 148.410156 69.035156 148.589844 C 68.886719 148.765625 68.757812 148.957031 68.652344 149.160156 C 68.542969 149.363281 68.457031 149.574219 68.390625 149.796875 C 68.324219 150.019531 68.285156 150.242188 68.265625 150.472656 C 68.246094 150.703125 68.253906 150.933594 68.28125 151.160156 C 68.3125 151.390625 68.363281 151.613281 68.4375 151.832031 C 68.511719 152.050781 68.609375 152.257812 68.726562 152.457031 C 68.84375 152.65625 68.980469 152.839844 69.136719 153.011719 L 133.269531 223.191406 L 133.265625 223.191406 C 136.242188 226.449219 138.121094 230.382812 138.734375 233.871094 C 139.34375 237.347656 138.695312 240.183594 137.269531 241.867188 C 136.507812 242.734375 135.582031 243.296875 134.351562 243.570312 C 134.289062 243.632812 134.230469 243.699219 134.171875 243.765625 L 134.179688 243.683594 L 117.566406 248.777344 C 117.507812 248.792969 117.449219 248.8125 117.394531 248.832031 C 117.199219 248.902344 117 248.964844 116.792969 249.019531 C 116.785156 249.019531 116.78125 249.019531 116.777344 249.023438 C 113.558594 249.816406 108.292969 247.988281 104.097656 243.398438 L 25.890625 157.816406 C 22.625 154.242188 20.726562 149.917969 20.292969 146.246094 C 19.863281 142.574219 20.800781 139.859375 22.632812 138.402344 L 84.886719 88.898438 C 85.292969 88.578125 85.742188 88.320312 86.25 88.125 C 86.566406 88 86.855469 87.832031 87.121094 87.625 C 87.390625 87.414062 87.617188 87.167969 87.808594 86.886719 C 88.003906 86.605469 88.148438 86.304688 88.25 85.980469 C 88.351562 85.65625 88.398438 85.324219 88.398438 84.984375 L 88.398438 87.453125 L 104.347656 82.546875 C 104.378906 82.5625 104.414062 82.574219 104.449219 82.585938 C 104.773438 82.472656 105.121094 82.386719 105.492188 82.320312 Z M 272.65625 118.394531 C 271.484375 118.441406 270.332031 118.628906 269.226562 118.96875 L 251.65625 124.355469 C 251.617188 124.371094 251.570312 124.382812 251.515625 124.398438 L 251.210938 124.496094 C 251.191406 124.515625 251.175781 124.539062 251.160156 124.558594 C 249.144531 125.246094 247.339844 126.453125 245.945312 128.054688 C 245.9375 128.0625 245.933594 128.070312 245.925781 128.078125 C 242.804688 131.734375 242.085938 136.738281 242.945312 141.632812 C 243.804688 146.527344 246.246094 151.5 250.074219 155.6875 L 311.773438 223.207031 L 263.53125 261.566406 C 259.78125 264.550781 258.308594 269.359375 258.589844 274.199219 C 258.871094 279.039062 260.808594 284.140625 264.253906 288.679688 C 269.484375 295.5625 277.0625 299.84375 284.335938 298.601562 L 284.183594 298.289062 C 284.347656 298.375 284.519531 298.445312 284.695312 298.5 C 285.613281 298.3125 286.515625 298.066406 287.367188 297.683594 L 286.96875 297.832031 L 304.34375 292.554688 C 304.453125 292.492188 304.558594 292.421875 304.660156 292.34375 L 304.621094 292.453125 C 305.695312 292.019531 306.699219 291.4375 307.605469 290.71875 C 307.605469 290.71875 307.609375 290.71875 307.609375 290.714844 L 369.878906 241.203125 C 369.878906 241.203125 369.878906 241.199219 369.878906 241.199219 C 373.980469 237.9375 375.332031 232.570312 374.710938 227.304688 C 374.089844 222.035156 371.585938 216.5625 367.398438 211.980469 L 289.1875 126.398438 C 285.507812 122.367188 280.972656 119.542969 276.191406 118.660156 C 275.007812 118.4375 273.828125 118.347656 272.660156 118.394531 C 272.660156 118.394531 272.65625 118.394531 272.65625 118.394531 Z M 272.929688 125.121094 C 273.558594 125.09375 274.238281 125.140625 274.960938 125.273438 C 277.894531 125.820312 281.363281 127.816406 284.214844 130.9375 L 362.421875 216.523438 C 365.6875 220.097656 367.585938 224.421875 368.019531 228.09375 C 368.453125 231.761719 367.511719 234.472656 365.683594 235.933594 L 303.414062 285.449219 C 303.03125 285.753906 302.605469 285.996094 302.128906 286.191406 L 285.007812 291.390625 C 284.871094 291.429688 284.742188 291.480469 284.609375 291.539062 C 284.183594 291.730469 283.71875 291.875 283.203125 291.964844 C 283.199219 291.964844 283.195312 291.964844 283.195312 291.964844 C 279.542969 292.585938 273.695312 289.976562 269.621094 284.609375 C 266.925781 281.058594 265.503906 277.09375 265.3125 273.808594 C 265.121094 270.527344 266.066406 268.15625 267.730469 266.835938 L 318.789062 226.230469 C 318.96875 226.085938 319.132812 225.925781 319.28125 225.75 C 319.429688 225.570312 319.554688 225.382812 319.664062 225.179688 C 319.773438 224.972656 319.859375 224.761719 319.925781 224.539062 C 319.988281 224.320312 320.03125 224.09375 320.046875 223.863281 C 320.066406 223.632812 320.0625 223.40625 320.03125 223.175781 C 320.003906 222.945312 319.953125 222.722656 319.878906 222.503906 C 319.804688 222.285156 319.707031 222.078125 319.589844 221.878906 C 319.472656 221.683594 319.335938 221.496094 319.179688 221.328125 L 255.046875 151.148438 C 252.066406 147.890625 250.195312 143.957031 249.582031 140.46875 C 248.96875 136.992188 249.613281 134.152344 251.039062 132.464844 C 251.667969 131.746094 252.414062 131.242188 253.34375 130.925781 C 253.367188 130.902344 253.390625 130.882812 253.410156 130.859375 L 253.515625 130.832031 C 253.523438 130.828125 253.53125 130.824219 253.539062 130.820312 C 253.558594 130.8125 253.589844 130.804688 253.625 130.792969 C 253.628906 130.792969 253.632812 130.792969 253.632812 130.792969 L 270.722656 125.554688 L 270.21875 125.554688 C 270.558594 125.554688 270.886719 125.503906 271.210938 125.402344 C 271.726562 125.246094 272.300781 125.144531 272.929688 125.117188 Z M 118.617188 255.496094 L 118.582031 255.507812 C 118.585938 255.507812 118.585938 255.507812 118.589844 255.507812 Z M 118.617188 255.496094 " fill-opacity="1" fill-rule="nonzero"/></g><path fill="#d9cef8" d="M 220.746094 70.851562 C 218.273438 70.804688 216.183594 71.492188 214.476562 72.910156 L 214.457031 72.804688 L 200.34375 76.519531 L 210.535156 80.871094 L 165.902344 272.417969 C 165.710938 273.265625 165.597656 274.152344 165.570312 275.085938 C 165.539062 276.015625 165.589844 276.976562 165.722656 277.960938 C 165.855469 278.945312 166.066406 279.941406 166.359375 280.949219 C 166.652344 281.957031 167.015625 282.960938 167.457031 283.957031 C 167.898438 284.953125 168.40625 285.925781 168.984375 286.878906 C 169.558594 287.832031 170.191406 288.746094 170.882812 289.621094 C 171.574219 290.496094 172.3125 291.320312 173.097656 292.09375 C 173.882812 292.867188 174.699219 293.574219 175.550781 294.214844 L 171.5625 302.84375 L 187.9375 297.816406 C 188.410156 297.707031 188.867188 297.566406 189.304688 297.394531 L 189.367188 297.375 L 189.363281 297.367188 C 190.75 296.804688 191.914062 295.9375 192.855469 294.769531 C 193.796875 293.601562 194.460938 292.199219 194.839844 290.566406 L 240.058594 96.515625 C 240.269531 95.601562 240.386719 94.640625 240.410156 93.628906 C 240.433594 92.617188 240.363281 91.578125 240.195312 90.507812 C 240.027344 89.433594 239.769531 88.355469 239.417969 87.265625 C 239.066406 86.175781 238.628906 85.097656 238.109375 84.03125 C 237.585938 82.964844 236.988281 81.929688 236.316406 80.929688 C 235.644531 79.925781 234.910156 78.976562 234.117188 78.074219 C 233.320312 77.175781 232.476562 76.34375 231.585938 75.582031 C 230.695312 74.820312 229.773438 74.140625 228.824219 73.546875 C 227.125 72.480469 225.410156 71.726562 223.679688 71.28125 C 222.679688 71.023438 221.703125 70.882812 220.746094 70.851562 Z M 105.046875 78.976562 C 104.445312 79.074219 103.867188 79.21875 103.3125 79.417969 L 103.480469 79.292969 L 85.03125 84.96875 L 85.089844 93.058594 L 38.179688 130.363281 C 37.832031 130.640625 37.503906 130.945312 37.199219 131.277344 C 36.894531 131.605469 36.613281 131.964844 36.359375 132.34375 C 36.101562 132.726562 35.871094 133.128906 35.664062 133.554688 C 35.457031 133.980469 35.273438 134.429688 35.121094 134.894531 C 34.96875 135.363281 34.839844 135.847656 34.742188 136.351562 C 34.640625 136.855469 34.570312 137.371094 34.523438 137.90625 C 34.480469 138.4375 34.464844 138.980469 34.476562 139.539062 C 34.488281 140.09375 34.527344 140.660156 34.59375 141.234375 C 34.664062 141.808594 34.757812 142.386719 34.882812 142.972656 C 35.003906 143.558594 35.152344 144.144531 35.332031 144.734375 C 35.507812 145.324219 35.710938 145.910156 35.9375 146.5 C 36.167969 147.085938 36.417969 147.667969 36.695312 148.246094 C 36.972656 148.824219 37.273438 149.394531 37.597656 149.957031 C 37.921875 150.519531 38.265625 151.070312 38.632812 151.613281 C 38.996094 152.152344 39.382812 152.679688 39.785156 153.191406 C 40.191406 153.707031 40.609375 154.203125 41.046875 154.679688 L 112.398438 232.761719 L 117.585938 252.292969 L 135.167969 246.902344 L 135.089844 246.855469 C 137 246.429688 138.578125 245.503906 139.824219 244.074219 C 140.367188 243.4375 140.824219 242.722656 141.199219 241.929688 C 141.570312 241.132812 141.851562 240.273438 142.042969 239.347656 C 142.234375 238.421875 142.332031 237.449219 142.332031 236.429688 C 142.332031 235.410156 142.238281 234.363281 142.050781 233.285156 C 141.859375 232.210938 141.582031 231.128906 141.207031 230.042969 C 140.835938 228.953125 140.382812 227.878906 139.839844 226.816406 C 139.300781 225.757812 138.6875 224.730469 138 223.738281 C 137.3125 222.746094 136.5625 221.808594 135.753906 220.921875 L 71.625 150.742188 L 122.683594 110.136719 C 123.328125 109.625 123.894531 109.023438 124.382812 108.335938 C 124.875 107.644531 125.277344 106.878906 125.59375 106.039062 C 125.90625 105.195312 126.128906 104.296875 126.261719 103.335938 C 126.390625 102.375 126.425781 101.375 126.363281 100.332031 C 126.304688 99.289062 126.148438 98.226562 125.898438 97.144531 C 125.648438 96.058594 125.3125 94.972656 124.882812 93.890625 C 124.457031 92.804688 123.945312 91.742188 123.355469 90.699219 C 122.765625 89.65625 122.105469 88.652344 121.375 87.691406 C 119.898438 85.75 118.234375 84.078125 116.371094 82.679688 C 114.511719 81.28125 112.601562 80.261719 110.640625 79.621094 C 108.675781 78.980469 106.8125 78.765625 105.046875 78.976562 Z M 272.792969 121.757812 C 271.890625 121.792969 271.03125 121.9375 270.21875 122.1875 L 270.214844 122.1875 L 252.195312 127.714844 L 263.683594 131.941406 C 263.632812 133.246094 263.738281 134.597656 264.007812 136 C 264.277344 137.398438 264.695312 138.800781 265.265625 140.207031 C 265.839844 141.613281 266.542969 142.980469 267.378906 144.300781 C 268.214844 145.625 269.15625 146.859375 270.207031 148.011719 L 334.335938 218.191406 L 283.277344 258.796875 C 282.632812 259.308594 282.066406 259.910156 281.578125 260.601562 C 281.085938 261.289062 280.683594 262.054688 280.367188 262.898438 C 280.054688 263.738281 279.832031 264.636719 279.699219 265.597656 C 279.570312 266.558594 279.535156 267.558594 279.597656 268.601562 C 279.65625 269.644531 279.8125 270.707031 280.0625 271.789062 C 280.3125 272.875 280.648438 273.960938 281.078125 275.042969 C 281.503906 276.128906 282.015625 277.191406 282.605469 278.234375 C 283.195312 279.277344 283.855469 280.28125 284.585938 281.242188 C 285.816406 282.847656 287.1875 284.269531 288.695312 285.507812 C 290.207031 286.75 291.773438 287.742188 293.402344 288.488281 L 283.765625 295.285156 L 303.363281 289.335938 L 303.363281 289.332031 C 304.144531 289.015625 304.859375 288.601562 305.511719 288.085938 L 367.78125 238.570312 C 368.128906 238.292969 368.457031 237.988281 368.761719 237.65625 C 369.0625 237.324219 369.34375 236.96875 369.601562 236.589844 C 369.859375 236.207031 370.089844 235.804688 370.296875 235.378906 C 370.503906 234.949219 370.683594 234.503906 370.839844 234.035156 C 370.992188 233.570312 371.121094 233.085938 371.21875 232.582031 C 371.320312 232.078125 371.390625 231.5625 371.433594 231.027344 C 371.480469 230.496094 371.496094 229.949219 371.484375 229.394531 C 371.472656 228.835938 371.433594 228.273438 371.363281 227.699219 C 371.296875 227.125 371.203125 226.546875 371.078125 225.960938 C 370.957031 225.375 370.804688 224.789062 370.628906 224.199219 C 370.453125 223.609375 370.25 223.019531 370.023438 222.433594 C 369.792969 221.847656 369.542969 221.265625 369.265625 220.6875 C 368.984375 220.109375 368.6875 219.539062 368.363281 218.976562 C 368.039062 218.414062 367.695312 217.859375 367.328125 217.320312 C 366.960938 216.78125 366.578125 216.253906 366.175781 215.738281 C 365.769531 215.226562 365.347656 214.730469 364.910156 214.253906 L 286.703125 128.667969 C 285.070312 126.878906 283.289062 125.40625 281.359375 124.246094 C 279.433594 123.085938 277.503906 122.324219 275.578125 121.96875 C 274.621094 121.789062 273.695312 121.71875 272.792969 121.757812 Z M 272.792969 121.757812 " fill-opacity="1" fill-rule="nonzero"/><path fill="#c5afff" d="M 236.898438 97.273438 L 227.023438 100.785156 C 224.074219 101.832031 221.855469 104.304688 221.144531 107.351562 L 177.195312 295.972656 C 176.417969 299.304688 174.417969 301.742188 171.558594 302.84375 L 171.558594 302.847656 L 187.933594 297.816406 C 188.40625 297.710938 188.863281 297.570312 189.304688 297.398438 L 189.367188 297.378906 L 189.363281 297.371094 C 192.136719 296.242188 194.074219 293.835938 194.839844 290.566406 L 239.359375 99.46875 C 239.4375 99.136719 239.425781 98.804688 239.320312 98.476562 C 239.21875 98.148438 239.039062 97.871094 238.78125 97.640625 C 238.523438 97.410156 238.226562 97.265625 237.890625 97.199219 C 237.550781 97.132812 237.222656 97.15625 236.898438 97.273438 Z M 236.898438 97.273438 " fill-opacity="1" fill-rule="nonzero"/><g clip-path="url(#1fe75b79cd)"><g clip-path="url(#dbdb8ff496)"><path fill="url(#de6c009819)" d="M 16.820312 76.234375 L 16.820312 303.496094 L 353.851562 303.496094 L 353.851562 76.234375 Z M 16.820312 76.234375 " fill-rule="nonzero"/></g></g><path fill="#c5afff" d="M 71.621094 150.742188 L 53.976562 156.144531 L 102.988281 117.042969 C 105.023438 115.414062 107.28125 114.1875 109.75 113.351562 L 120.535156 109.71875 C 120.695312 109.664062 120.855469 109.667969 121.015625 109.726562 C 121.175781 109.789062 121.296875 109.898438 121.378906 110.046875 C 121.460938 110.195312 121.484375 110.355469 121.453125 110.523438 C 121.417969 110.691406 121.335938 110.828125 121.203125 110.9375 Z M 71.621094 150.742188 " fill-opacity="1" fill-rule="nonzero"/><path fill="#c5afff" d="M 285.988281 294.609375 L 344.734375 248.246094 C 346.933594 246.511719 349.34375 245.152344 351.964844 244.171875 L 363.027344 240.03125 C 363.234375 239.953125 363.441406 239.953125 363.648438 240.027344 C 363.855469 240.101562 364.015625 240.238281 364.125 240.429688 C 364.234375 240.621094 364.265625 240.828125 364.222656 241.042969 C 364.179688 241.261719 364.070312 241.4375 363.898438 241.574219 L 303.363281 289.335938 Z M 285.988281 294.609375 " fill-opacity="1" fill-rule="nonzero"/><path fill="#8051ff" d="M 16.929688 145.820312 C 17.011719 147.023438 17.21875 148.25 17.546875 149.5 C 17.878906 150.75 18.324219 151.992188 18.882812 153.226562 C 19.445312 154.460938 20.105469 155.660156 20.867188 156.816406 C 21.628906 157.972656 22.476562 159.0625 23.402344 160.085938 L 101.609375 245.671875 C 102.015625 246.113281 102.429688 246.539062 102.859375 246.945312 C 103.285156 247.355469 103.722656 247.742188 104.171875 248.113281 C 104.621094 248.484375 105.078125 248.835938 105.542969 249.167969 C 106.007812 249.5 106.476562 249.808594 106.953125 250.09375 C 107.429688 250.378906 107.910156 250.644531 108.390625 250.882812 C 108.875 251.125 109.359375 251.339844 109.84375 251.53125 C 110.332031 251.722656 110.816406 251.886719 111.296875 252.027344 C 111.78125 252.167969 112.261719 252.28125 112.738281 252.371094 C 113.214844 252.457031 113.683594 252.519531 114.148438 252.554688 C 114.613281 252.589844 115.070312 252.597656 115.519531 252.582031 C 115.96875 252.5625 116.40625 252.519531 116.835938 252.445312 C 117.265625 252.375 117.679688 252.277344 118.085938 252.15625 C 118.488281 252.03125 118.878906 251.882812 119.253906 251.707031 C 119.628906 251.53125 119.988281 251.332031 120.332031 251.109375 C 120.675781 250.882812 121.003906 250.636719 121.3125 250.363281 C 121.621094 250.089844 121.910156 249.796875 122.179688 249.480469 C 122.722656 248.84375 123.179688 248.128906 123.550781 247.332031 C 123.925781 246.539062 124.207031 245.679688 124.398438 244.753906 C 124.589844 243.828125 124.683594 242.855469 124.683594 241.835938 C 124.6875 240.816406 124.59375 239.765625 124.402344 238.691406 C 124.214844 237.617188 123.933594 236.535156 123.5625 235.445312 C 123.191406 234.359375 122.734375 233.28125 122.195312 232.222656 C 121.65625 231.160156 121.039062 230.136719 120.351562 229.144531 C 119.664062 228.152344 118.917969 227.210938 118.109375 226.328125 L 90.230469 195.820312 C 66.191406 183.046875 41.789062 166.699219 16.929688 145.820312 Z M 160.765625 224.144531 L 148.257812 277.824219 C 148.042969 278.734375 147.925781 279.699219 147.902344 280.707031 C 147.878906 281.71875 147.953125 282.761719 148.117188 283.832031 C 148.285156 284.902344 148.546875 285.980469 148.894531 287.070312 C 149.246094 288.160156 149.683594 289.238281 150.207031 290.304688 C 150.726562 291.371094 151.324219 292.40625 151.996094 293.410156 C 152.667969 294.410156 153.402344 295.363281 154.199219 296.261719 C 154.996094 297.160156 155.839844 297.992188 156.730469 298.753906 C 157.617188 299.515625 158.539062 300.195312 159.488281 300.792969 C 159.964844 301.089844 160.441406 301.363281 160.921875 301.613281 C 161.40625 301.863281 161.890625 302.089844 162.375 302.292969 C 162.859375 302.496094 163.34375 302.675781 163.828125 302.828125 C 164.3125 302.980469 164.792969 303.105469 165.273438 303.207031 C 165.75 303.304688 166.222656 303.378906 166.691406 303.425781 C 167.160156 303.476562 167.621094 303.496094 168.074219 303.488281 C 168.527344 303.484375 168.96875 303.453125 169.402344 303.394531 C 169.835938 303.332031 170.257812 303.25 170.667969 303.136719 C 171.078125 303.023438 171.472656 302.886719 171.855469 302.726562 C 172.238281 302.5625 172.605469 302.375 172.957031 302.160156 C 173.308594 301.945312 173.644531 301.710938 173.960938 301.449219 C 174.277344 301.1875 174.574219 300.902344 174.855469 300.597656 C 175.132812 300.289062 175.394531 299.960938 175.632812 299.613281 C 175.871094 299.265625 176.089844 298.894531 176.285156 298.507812 C 176.480469 298.121094 176.65625 297.714844 176.808594 297.289062 C 176.960938 296.867188 177.089844 296.425781 177.195312 295.972656 L 192.214844 231.5 C 181.78125 229.539062 171.300781 227.101562 160.765625 224.144531 Z M 353.660156 237.09375 C 334.871094 237.96875 316.082031 238.800781 297.230469 239.070312 L 265.628906 264.203125 C 264.988281 264.714844 264.417969 265.316406 263.929688 266.003906 C 263.441406 266.695312 263.039062 267.460938 262.722656 268.300781 C 262.40625 269.144531 262.183594 270.042969 262.054688 271.003906 C 261.925781 271.964844 261.890625 272.964844 261.949219 274.007812 C 262.011719 275.050781 262.167969 276.113281 262.414062 277.195312 C 262.664062 278.28125 263.003906 279.363281 263.429688 280.449219 C 263.859375 281.535156 264.367188 282.597656 264.957031 283.640625 C 265.550781 284.683594 266.210938 285.683594 266.9375 286.648438 C 267.304688 287.125 267.683594 287.59375 268.078125 288.042969 C 268.46875 288.496094 268.878906 288.933594 269.296875 289.355469 C 269.714844 289.773438 270.148438 290.175781 270.589844 290.5625 C 271.03125 290.945312 271.480469 291.3125 271.941406 291.65625 C 272.398438 292.003906 272.867188 292.324219 273.339844 292.628906 C 273.8125 292.929688 274.289062 293.210938 274.769531 293.46875 C 275.25 293.722656 275.734375 293.957031 276.21875 294.164062 C 276.703125 294.375 277.1875 294.558594 277.671875 294.714844 C 278.160156 294.875 278.640625 295.007812 279.121094 295.113281 C 279.597656 295.222656 280.074219 295.300781 280.542969 295.355469 C 281.011719 295.410156 281.472656 295.4375 281.929688 295.4375 C 282.382812 295.4375 282.828125 295.414062 283.265625 295.359375 C 283.703125 295.308594 284.125 295.230469 284.539062 295.125 C 284.953125 295.019531 285.351562 294.886719 285.738281 294.730469 C 286.125 294.574219 286.496094 294.390625 286.851562 294.183594 C 287.207031 293.976562 287.542969 293.746094 287.867188 293.492188 L 350.136719 243.972656 C 351.101562 243.1875 351.882812 242.210938 352.484375 241.039062 C 353.085938 239.867188 353.476562 238.550781 353.660156 237.09375 Z M 353.660156 237.09375 " fill-opacity="1" fill-rule="nonzero"/></svg>